<svg id="visual" viewBox="0 0 900 600" width="900" height="600" xmlns="http://www.w3.org/2000/svg" xmlns:xlink="http://www.w3.org/1999/xlink" version="1.1"><path d="M0 472L37.5 471.2C75 470.3 150 468.7 225 461C300 453.3 375 439.7 450 439.5C525 439.3 600 452.7 675 462.5C750 472.3 825 478.7 862.5 481.8L900 485L900 601L862.5 601C825 601 750 601 675 601C600 601 525 601 450 601C375 601 300 601 225 601C150 601 75 601 37.5 601L0 601Z" fill="#ffdbec"></path><path d="M0 533L37.5 520.5C75 508 150 483 225 475.3C300 467.7 375 477.3 450 488.7C525 500 600 513 675 517.2C750 521.3 825 516.7 862.5 514.3L900 512L900 601L862.5 601C825 601 750 601 675 601C600 601 525 601 450 601C375 601 300 601 225 601C150 601 75 601 37.5 601L0 601Z" fill="#fecfe6"></path><path d="M0 570L37.5 563.8C75 557.7 150 545.3 225 537C300 528.7 375 524.3 450 524C525 523.7 600 527.3 675 527.5C750 527.7 825 524.3 862.5 522.7L900 521L900 601L862.5 601C825 601 750 601 675 601C600 601 525 601 450 601C375 601 300 601 225 601C150 601 75 601 37.5 601L0 601Z" fill="#fec0de"></path><path d="M0 591L37.5 582C75 573 150 555 225 550C300 545 375 553 450 556.3C525 559.7 600 558.3 675 563.3C750 568.3 825 579.7 862.5 585.3L900 591L900 601L862.5 601C825 601 750 601 675 601C600 601 525 601 450 601C375 601 300 601 225 601C150 601 75 601 37.5 601L0 601Z" fill="#feadd5"></path></svg>