<svg id="visual" viewBox="0 0 900 600" width="900" height="600" xmlns="http://www.w3.org/2000/svg" xmlns:xlink="http://www.w3.org/1999/xlink" version="1.1"><path d="M0 154L10.7 159.2C21.3 164.3 42.7 174.7 64.2 178.2C85.7 181.7 107.3 178.3 128.8 173C150.3 167.7 171.7 160.3 193 159.2C214.3 158 235.7 163 257 166.2C278.3 169.3 299.7 170.7 321.2 174.2C342.7 177.7 364.3 183.3 385.8 183.3C407.3 183.3 428.7 177.7 450 175.5C471.3 173.3 492.7 174.7 514.2 179.2C535.7 183.7 557.3 191.3 578.8 188.7C600.3 186 621.7 173 643 170.8C664.3 168.7 685.7 177.3 707 181.7C728.3 186 749.7 186 771.2 185.5C792.7 185 814.3 184 835.8 179.5C857.3 175 878.7 167 889.3 163L900 159L900 0L889.3 0C878.7 0 857.3 0 835.8 0C814.3 0 792.7 0 771.2 0C749.7 0 728.3 0 707 0C685.7 0 664.3 0 643 0C621.7 0 600.3 0 578.8 0C557.3 0 535.7 0 514.2 0C492.7 0 471.3 0 450 0C428.7 0 407.3 0 385.8 0C364.3 0 342.7 0 321.2 0C299.7 0 278.3 0 257 0C235.7 0 214.3 0 193 0C171.7 0 150.3 0 128.8 0C107.3 0 85.7 0 64.2 0C42.7 0 21.3 0 10.7 0L0 0Z" fill="#ffdbec"></path><path d="M0 152L10.7 148C21.3 144 42.7 136 64.2 131.3C85.7 126.7 107.3 125.3 128.8 125.8C150.3 126.3 171.7 128.7 193 126.3C214.3 124 235.7 117 257 118.5C278.3 120 299.7 130 321.2 135.7C342.7 141.3 364.3 142.7 385.8 142.3C407.3 142 428.7 140 450 135.7C471.3 131.3 492.7 124.7 514.2 127.2C535.7 129.7 557.3 141.3 578.8 140.8C600.3 140.3 621.7 127.7 643 127C664.3 126.3 685.7 137.7 707 143.7C728.3 149.7 749.7 150.3 771.2 150.7C792.7 151 814.3 151 835.8 147.2C857.3 143.3 878.7 135.7 889.3 131.8L900 128L900 0L889.3 0C878.7 0 857.3 0 835.8 0C814.3 0 792.7 0 771.2 0C749.7 0 728.3 0 707 0C685.7 0 664.3 0 643 0C621.7 0 600.3 0 578.8 0C557.3 0 535.7 0 514.2 0C492.7 0 471.3 0 450 0C428.7 0 407.3 0 385.8 0C364.3 0 342.7 0 321.2 0C299.7 0 278.3 0 257 0C235.7 0 214.3 0 193 0C171.7 0 150.3 0 128.8 0C107.3 0 85.7 0 64.2 0C42.7 0 21.3 0 10.7 0L0 0Z" fill="#fecfe6"></path><path d="M0 81L10.7 79.3C21.3 77.7 42.7 74.3 64.2 73.7C85.7 73 107.3 75 128.8 78.3C150.3 81.7 171.7 86.3 193 89.8C214.3 93.3 235.7 95.7 257 93C278.3 90.3 299.7 82.7 321.2 81C342.7 79.3 364.3 83.7 385.8 88.7C407.3 93.7 428.7 99.3 450 102.3C471.3 105.3 492.7 105.7 514.2 101C535.7 96.3 557.3 86.7 578.8 81C600.3 75.3 621.7 73.7 643 78.3C664.3 83 685.7 94 707 97.7C728.3 101.3 749.7 97.7 771.2 95.3C792.7 93 814.3 92 835.8 93.3C857.3 94.7 878.7 98.3 889.3 100.2L900 102L900 0L889.3 0C878.7 0 857.3 0 835.8 0C814.3 0 792.7 0 771.2 0C749.7 0 728.3 0 707 0C685.7 0 664.3 0 643 0C621.7 0 600.3 0 578.8 0C557.3 0 535.7 0 514.2 0C492.7 0 471.3 0 450 0C428.7 0 407.3 0 385.8 0C364.3 0 342.7 0 321.2 0C299.7 0 278.3 0 257 0C235.7 0 214.3 0 193 0C171.7 0 150.3 0 128.8 0C107.3 0 85.7 0 64.2 0C42.7 0 21.3 0 10.7 0L0 0Z" fill="#fec0de"></path><path d="M0 30L10.7 33.8C21.3 37.7 42.7 45.3 64.2 50.8C85.7 56.3 107.3 59.7 128.8 57.8C150.3 56 171.7 49 193 48.5C214.3 48 235.7 54 257 52C278.3 50 299.7 40 321.2 39.3C342.7 38.7 364.3 47.3 385.8 53.2C407.3 59 428.7 62 450 60.7C471.3 59.3 492.7 53.7 514.2 48C535.7 42.3 557.3 36.7 578.8 34.7C600.3 32.7 621.7 34.3 643 39.3C664.3 44.3 685.7 52.7 707 52.3C728.3 52 749.7 43 771.2 42.8C792.7 42.7 814.3 51.3 835.8 53.8C857.3 56.3 878.7 52.7 889.3 50.8L900 49L900 0L889.3 0C878.7 0 857.3 0 835.8 0C814.3 0 792.7 0 771.2 0C749.7 0 728.3 0 707 0C685.7 0 664.3 0 643 0C621.7 0 600.3 0 578.8 0C557.3 0 535.7 0 514.2 0C492.7 0 471.3 0 450 0C428.7 0 407.3 0 385.8 0C364.3 0 342.7 0 321.2 0C299.7 0 278.3 0 257 0C235.7 0 214.3 0 193 0C171.7 0 150.3 0 128.8 0C107.3 0 85.7 0 64.2 0C42.7 0 21.3 0 10.7 0L0 0Z" fill="#feadd5"></path></svg>