<svg xmlns="http://www.w3.org/2000/svg" viewBox="0 0 1440 320"><path fill="#fec9e3" fill-opacity="1" d="M0,128L10.4,144C20.9,160,42,192,63,176C83.5,160,104,96,125,112C146.1,128,167,224,188,229.3C208.7,235,230,149,250,133.3C271.3,117,292,171,313,176C333.9,181,355,139,376,154.7C396.5,171,417,245,438,261.3C459.1,277,480,235,501,197.3C521.7,160,543,128,563,138.7C584.3,149,605,203,626,213.3C647,224,668,192,689,202.7C709.6,213,730,267,751,288C772.2,309,793,299,814,277.3C834.8,256,856,224,877,176C897.4,128,918,64,939,69.3C960,75,981,149,1002,186.7C1022.6,224,1043,224,1064,202.7C1085.2,181,1106,139,1127,133.3C1147.8,128,1169,160,1190,154.7C1210.4,149,1231,107,1252,112C1273,117,1294,171,1315,181.3C1335.7,192,1357,160,1377,165.3C1398.3,171,1419,213,1430,234.7L1440,256L1440,0L1429.6,0C1419.1,0,1398,0,1377,0C1356.5,0,1336,0,1315,0C1293.9,0,1273,0,1252,0C1231.3,0,1210,0,1190,0C1168.7,0,1148,0,1127,0C1106.1,0,1085,0,1064,0C1043.5,0,1023,0,1002,0C980.9,0,960,0,939,0C918.3,0,897,0,877,0C855.7,0,835,0,814,0C793,0,772,0,751,0C730.4,0,710,0,689,0C667.8,0,647,0,626,0C605.2,0,584,0,563,0C542.6,0,522,0,501,0C480,0,459,0,438,0C417.4,0,397,0,376,0C354.8,0,334,0,313,0C292.2,0,271,0,250,0C229.6,0,209,0,188,0C167,0,146,0,125,0C104.3,0,83,0,63,0C41.7,0,21,0,10,0L0,0Z"></path></svg>