<svg id="visual" viewBox="0 0 900 600" width="900" height="600" xmlns="http://www.w3.org/2000/svg" xmlns:xlink="http://www.w3.org/1999/xlink" version="1.1"><path d="M68 0L68.5 14.3C69 28.7 70 57.3 67.8 85.8C65.7 114.3 60.3 142.7 58.5 171.2C56.7 199.7 58.3 228.3 60.7 257C63 285.7 66 314.3 66.7 343C67.3 371.7 65.7 400.3 64 428.8C62.3 457.3 60.7 485.7 59.2 514.2C57.7 542.7 56.3 571.3 55.7 585.7L55 600L0 600L0 585.7C0 571.3 0 542.7 0 514.2C0 485.7 0 457.3 0 428.8C0 400.3 0 371.7 0 343C0 314.3 0 285.7 0 257C0 228.3 0 199.7 0 171.2C0 142.7 0 114.3 0 85.8C0 57.3 0 28.7 0 14.3L0 0Z" fill="#ffdbec"></path><path d="M53 0L55.2 14.3C57.3 28.7 61.7 57.3 62.3 85.8C63 114.3 60 142.7 57.5 171.2C55 199.7 53 228.3 52.7 257C52.3 285.7 53.7 314.3 54.8 343C56 371.7 57 400.3 57.5 428.8C58 457.3 58 485.7 56.3 514.2C54.7 542.7 51.3 571.3 49.7 585.7L48 600L0 600L0 585.7C0 571.3 0 542.7 0 514.2C0 485.7 0 457.3 0 428.8C0 400.3 0 371.7 0 343C0 314.3 0 285.7 0 257C0 228.3 0 199.7 0 171.2C0 142.7 0 114.3 0 85.8C0 57.3 0 28.7 0 14.3L0 0Z" fill="#ffd8ea"></path><path d="M64 0L61 14.3C58 28.7 52 57.3 50 85.8C48 114.3 50 142.7 50.3 171.2C50.7 199.7 49.3 228.3 50.7 257C52 285.7 56 314.3 58.2 343C60.3 371.7 60.7 400.3 59 428.8C57.3 457.3 53.7 485.7 51.7 514.2C49.7 542.7 49.3 571.3 49.2 585.7L49 600L0 600L0 585.7C0 571.3 0 542.7 0 514.2C0 485.7 0 457.3 0 428.8C0 400.3 0 371.7 0 343C0 314.3 0 285.7 0 257C0 228.3 0 199.7 0 171.2C0 142.7 0 114.3 0 85.8C0 57.3 0 28.7 0 14.3L0 0Z" fill="#ffd4e9"></path><path d="M49 0L47.5 14.3C46 28.7 43 57.3 41.8 85.8C40.7 114.3 41.3 142.7 42 171.2C42.7 199.7 43.3 228.3 45.3 257C47.3 285.7 50.7 314.3 50.7 343C50.7 371.7 47.3 400.3 47.7 428.8C48 457.3 52 485.7 52 514.2C52 542.7 48 571.3 46 585.7L44 600L0 600L0 585.7C0 571.3 0 542.7 0 514.2C0 485.7 0 457.3 0 428.8C0 400.3 0 371.7 0 343C0 314.3 0 285.7 0 257C0 228.3 0 199.7 0 171.2C0 142.7 0 114.3 0 85.8C0 57.3 0 28.7 0 14.3L0 0Z" fill="#ffd1e7"></path><path d="M40 0L41.8 14.3C43.7 28.7 47.3 57.3 47.7 85.8C48 114.3 45 142.7 45 171.2C45 199.7 48 228.3 48 257C48 285.7 45 314.3 45.2 343C45.3 371.7 48.7 400.3 50.3 428.8C52 457.3 52 485.7 51.5 514.2C51 542.7 50 571.3 49.5 585.7L49 600L0 600L0 585.7C0 571.3 0 542.7 0 514.2C0 485.7 0 457.3 0 428.8C0 400.3 0 371.7 0 343C0 314.3 0 285.7 0 257C0 228.3 0 199.7 0 171.2C0 142.7 0 114.3 0 85.8C0 57.3 0 28.7 0 14.3L0 0Z" fill="#fecee5"></path><path d="M35 0L34.7 14.3C34.3 28.7 33.7 57.3 34 85.8C34.3 114.3 35.7 142.7 35.8 171.2C36 199.7 35 228.3 34.7 257C34.3 285.7 34.7 314.3 36.7 343C38.7 371.7 42.3 400.3 42.5 428.8C42.7 457.3 39.3 485.7 37.7 514.2C36 542.7 36 571.3 36 585.7L36 600L0 600L0 585.7C0 571.3 0 542.7 0 514.2C0 485.7 0 457.3 0 428.8C0 400.3 0 371.7 0 343C0 314.3 0 285.7 0 257C0 228.3 0 199.7 0 171.2C0 142.7 0 114.3 0 85.8C0 57.3 0 28.7 0 14.3L0 0Z" fill="#fecbe4"></path><path d="M38 0L37.8 14.3C37.7 28.7 37.3 57.3 36.2 85.8C35 114.3 33 142.7 33.7 171.2C34.3 199.7 37.7 228.3 39.3 257C41 285.7 41 314.3 40.8 343C40.7 371.7 40.3 400.3 38.5 428.8C36.7 457.3 33.3 485.7 31.8 514.2C30.3 542.7 30.7 571.3 30.8 585.7L31 600L0 600L0 585.7C0 571.3 0 542.7 0 514.2C0 485.7 0 457.3 0 428.8C0 400.3 0 371.7 0 343C0 314.3 0 285.7 0 257C0 228.3 0 199.7 0 171.2C0 142.7 0 114.3 0 85.8C0 57.3 0 28.7 0 14.3L0 0Z" fill="#fec6e2"></path><path d="M24 0L25.2 14.3C26.3 28.7 28.7 57.3 30.5 85.8C32.3 114.3 33.7 142.7 33.2 171.2C32.7 199.7 30.3 228.3 28.5 257C26.7 285.7 25.3 314.3 24.3 343C23.3 371.7 22.7 400.3 24.5 428.8C26.3 457.3 30.7 485.7 31.2 514.2C31.7 542.7 28.3 571.3 26.7 585.7L25 600L0 600L0 585.7C0 571.3 0 542.7 0 514.2C0 485.7 0 457.3 0 428.8C0 400.3 0 371.7 0 343C0 314.3 0 285.7 0 257C0 228.3 0 199.7 0 171.2C0 142.7 0 114.3 0 85.8C0 57.3 0 28.7 0 14.3L0 0Z" fill="#fec1df"></path><path d="M20 0L21.5 14.3C23 28.7 26 57.3 27.5 85.8C29 114.3 29 142.7 27.5 171.2C26 199.7 23 228.3 21.8 257C20.7 285.7 21.3 314.3 21.5 343C21.7 371.7 21.3 400.3 21.2 428.8C21 457.3 21 485.7 21 514.2C21 542.7 21 571.3 21 585.7L21 600L0 600L0 585.7C0 571.3 0 542.7 0 514.2C0 485.7 0 457.3 0 428.8C0 400.3 0 371.7 0 343C0 314.3 0 285.7 0 257C0 228.3 0 199.7 0 171.2C0 142.7 0 114.3 0 85.8C0 57.3 0 28.7 0 14.3L0 0Z" fill="#febcdd"></path><path d="M19 0L18.7 14.3C18.3 28.7 17.7 57.3 16.8 85.8C16 114.3 15 142.7 15.5 171.2C16 199.7 18 228.3 18 257C18 285.7 16 314.3 15.7 343C15.3 371.7 16.7 400.3 17.5 428.8C18.3 457.3 18.7 485.7 18.5 514.2C18.3 542.7 17.7 571.3 17.3 585.7L17 600L0 600L0 585.7C0 571.3 0 542.7 0 514.2C0 485.7 0 457.3 0 428.8C0 400.3 0 371.7 0 343C0 314.3 0 285.7 0 257C0 228.3 0 199.7 0 171.2C0 142.7 0 114.3 0 85.8C0 57.3 0 28.7 0 14.3L0 0Z" fill="#feb7da"></path><path d="M10 0L10.5 14.3C11 28.7 12 57.3 12.3 85.8C12.7 114.3 12.3 142.7 11.8 171.2C11.3 199.7 10.7 228.3 11.5 257C12.3 285.7 14.7 314.3 14.7 343C14.7 371.7 12.3 400.3 12 428.8C11.7 457.3 13.3 485.7 13.3 514.2C13.3 542.7 11.7 571.3 10.8 585.7L10 600L0 600L0 585.7C0 571.3 0 542.7 0 514.2C0 485.7 0 457.3 0 428.8C0 400.3 0 371.7 0 343C0 314.3 0 285.7 0 257C0 228.3 0 199.7 0 171.2C0 142.7 0 114.3 0 85.8C0 57.3 0 28.7 0 14.3L0 0Z" fill="#feb2d8"></path><path d="M6 0L5.8 14.3C5.7 28.7 5.3 57.3 5.5 85.8C5.7 114.3 6.3 142.7 6.8 171.2C7.3 199.7 7.7 228.3 8 257C8.3 285.7 8.7 314.3 9 343C9.3 371.7 9.7 400.3 9.5 428.8C9.3 457.3 8.7 485.7 8.7 514.2C8.7 542.7 9.3 571.3 9.7 585.7L10 600L0 600L0 585.7C0 571.3 0 542.7 0 514.2C0 485.7 0 457.3 0 428.8C0 400.3 0 371.7 0 343C0 314.3 0 285.7 0 257C0 228.3 0 199.7 0 171.2C0 142.7 0 114.3 0 85.8C0 57.3 0 28.7 0 14.3L0 0Z" fill="#feadd5"></path></svg>