<svg xmlns="http://www.w3.org/2000/svg" viewBox="0 0 1440 320"><path fill="#fec9e3" fill-opacity="1" d="M0,256L8.9,229.3C17.8,203,36,149,53,112C71.1,75,89,53,107,85.3C124.4,117,142,203,160,218.7C177.8,235,196,181,213,165.3C231.1,149,249,171,267,202.7C284.4,235,302,277,320,277.3C337.8,277,356,235,373,208C391.1,181,409,171,427,154.7C444.4,139,462,117,480,128C497.8,139,516,181,533,170.7C551.1,160,569,96,587,106.7C604.4,117,622,203,640,250.7C657.8,299,676,309,693,288C711.1,267,729,213,747,192C764.4,171,782,181,800,197.3C817.8,213,836,235,853,208C871.1,181,889,107,907,74.7C924.4,43,942,53,960,64C977.8,75,996,85,1013,112C1031.1,139,1049,181,1067,213.3C1084.4,245,1102,267,1120,266.7C1137.8,267,1156,245,1173,213.3C1191.1,181,1209,139,1227,122.7C1244.4,107,1262,117,1280,138.7C1297.8,160,1316,192,1333,176C1351.1,160,1369,96,1387,74.7C1404.4,53,1422,75,1431,85.3L1440,96L1440,0L1431.1,0C1422.2,0,1404,0,1387,0C1368.9,0,1351,0,1333,0C1315.6,0,1298,0,1280,0C1262.2,0,1244,0,1227,0C1208.9,0,1191,0,1173,0C1155.6,0,1138,0,1120,0C1102.2,0,1084,0,1067,0C1048.9,0,1031,0,1013,0C995.6,0,978,0,960,0C942.2,0,924,0,907,0C888.9,0,871,0,853,0C835.6,0,818,0,800,0C782.2,0,764,0,747,0C728.9,0,711,0,693,0C675.6,0,658,0,640,0C622.2,0,604,0,587,0C568.9,0,551,0,533,0C515.6,0,498,0,480,0C462.2,0,444,0,427,0C408.9,0,391,0,373,0C355.6,0,338,0,320,0C302.2,0,284,0,267,0C248.9,0,231,0,213,0C195.6,0,178,0,160,0C142.2,0,124,0,107,0C88.9,0,71,0,53,0C35.6,0,18,0,9,0L0,0Z"></path></svg>